<?xml version="1.0"?>
<svg xmlns="http://www.w3.org/2000/svg" viewBox="0 0 24 24">
    <path d="M 2 2 L 2 7 L 4 7 L 4 4 L 7 4 L 7 2 L 2 2 z M 17 2 L 17 4 L 20 4 L 20 7 L 22 7 L 22 2 L 17 2 z M 5.90625 8 C 3.39625 8 3 10.45775 3 11.34375 L 3 11.65625 C 3 12.72125 3.46525 15 5.90625 15 C 8.41825 15 8.8125 12.70525 8.8125 11.65625 L 8.8125 11.34375 C 8.8385 10.42675 8.44325 8 5.90625 8 z M 12.4375 8 C 10.2415 8 9.625 9.87625 9.625 11.28125 L 9.625 11.71875 C 9.625 13.09875 10.2755 15 12.4375 15 C 14.7285 15 15.04925 13.441 15.15625 12.625 L 13.78125 12.625 C 13.67125 13.317 13.4945 13.84375 12.4375 13.84375 C 11.3995 13.84375 11.03125 13.02075 11.03125 11.71875 L 11.03125 11.28125 C 11.03125 10.05825 11.3815 9.15625 12.4375 9.15625 C 13.3965 9.15625 13.70925 9.64125 13.78125 10.40625 L 15.1875 10.40625 C 15.0705 9.20425 14.2875 8 12.4375 8 z M 16.09375 8.09375 L 16.09375 14.90625 L 17.5 14.90625 L 17.5 12.40625 L 18.625 12.40625 L 19.875 14.90625 L 21.40625 14.90625 L 21.40625 14.84375 L 19.9375 12.0625 C 21.2015 11.4745 21.15625 10.40525 21.15625 10.15625 C 21.15625 9.81925 21.081 8.09375 18.625 8.09375 L 16.09375 8.09375 z M 5.90625 9.15625 C 7.05225 9.15625 7.375 10.29475 7.375 11.34375 L 7.375 11.65625 C 7.375 13.00125 6.93325 13.84375 5.90625 13.84375 C 5.29325 13.84375 4.4375 13.45525 4.4375 11.65625 L 4.4375 11.34375 C 4.4375 10.24875 4.75525 9.15625 5.90625 9.15625 z M 17.5 9.21875 L 18.625 9.21875 C 19.644 9.21875 19.75 9.929 19.75 10.25 C 19.75 10.403 19.779 11.28125 18.625 11.28125 L 17.5 11.28125 L 17.5 9.21875 z M 2 17 L 2 22 L 7 22 L 7 20 L 4 20 L 4 17 L 2 17 z M 20 17 L 20 20 L 17 20 L 17 22 L 22 22 L 22 17 L 20 17 z"/>
</svg>
